<svg width="98" height="136" viewBox="0 0 98 136" fill="none" xmlns="http://www.w3.org/2000/svg">
<circle cx="1.5" cy="1.5" r="1.5" transform="matrix(-1 0 0 1 60 95)" fill="#3859FF"/>
<circle cx="1.5" cy="1.5" r="1.5" transform="matrix(-1 0 0 1 60 114)" fill="#3859FF"/>
<circle cx="1.5" cy="1.5" r="1.5" transform="matrix(-1 0 0 1 60 133)" fill="#3859FF"/>
<circle cx="1.5" cy="1.5" r="1.5" transform="matrix(-1 0 0 1 79 95)" fill="#00BF9F"/>
<circle cx="1.5" cy="1.5" r="1.5" transform="matrix(-1 0 0 1 79 114)" fill="#00BF9F"/>
<circle cx="1.5" cy="1.5" r="1.5" transform="matrix(-1 0 0 1 79 133)" fill="#00BF9F"/>
<circle cx="1.5" cy="1.5" r="1.5" transform="matrix(-1 0 0 1 98 95)" fill="#3859FF"/>
<circle cx="1.5" cy="1.5" r="1.5" transform="matrix(-1 0 0 1 98 114)" fill="#3859FF"/>
<circle cx="1.5" cy="1.5" r="1.5" transform="matrix(-1 0 0 1 98 133)" fill="#3859FF"/>
<circle cx="1.5" cy="1.5" r="1.5" transform="matrix(-1 0 0 1 60 76)" fill="#00BF9F"/>
<circle cx="1.5" cy="1.5" r="1.5" transform="matrix(-1 0 0 1 79 76)" fill="#3859FF"/>
<circle cx="1.5" cy="1.5" r="1.5" transform="matrix(-1 0 0 1 98 76)" fill="#00BF9F"/>
<circle cx="1.5" cy="1.5" r="1.5" transform="matrix(-1 0 0 1 60 57)" fill="#3859FF"/>
<circle cx="1.5" cy="1.5" r="1.5" transform="matrix(-1 0 0 1 41 57)" fill="white"/>
<circle cx="1.5" cy="1.5" r="1.5" transform="matrix(-1 0 0 1 41 76)" fill="white"/>
<circle cx="1.5" cy="1.5" r="1.5" transform="matrix(-1 0 0 1 41 95)" fill="white"/>
<circle cx="1.5" cy="1.5" r="1.5" transform="matrix(-1 0 0 1 41 114)" fill="white"/>
<circle cx="1.5" cy="1.5" r="1.5" transform="matrix(-1 0 0 1 41 133)" fill="white"/>
<circle cx="1.5" cy="1.5" r="1.5" transform="matrix(-1 0 0 1 22 57)" fill="white"/>
<circle cx="1.5" cy="1.5" r="1.5" transform="matrix(-1 0 0 1 22 76)" fill="white"/>
<circle cx="1.5" cy="1.5" r="1.5" transform="matrix(-1 0 0 1 22 95)" fill="white"/>
<circle cx="1.5" cy="1.5" r="1.5" transform="matrix(-1 0 0 1 22 114)" fill="white"/>
<circle cx="1.5" cy="1.5" r="1.5" transform="matrix(-1 0 0 1 22 133)" fill="white"/>
<circle cx="1.5" cy="1.5" r="1.5" transform="matrix(-1 0 0 1 3 57)" fill="white"/>
<circle cx="1.5" cy="1.5" r="1.5" transform="matrix(-1 0 0 1 3 76)" fill="white"/>
<circle cx="1.5" cy="1.5" r="1.5" transform="matrix(-1 0 0 1 3 95)" fill="white"/>
<circle cx="1.5" cy="1.5" r="1.5" transform="matrix(-1 0 0 1 3 114)" fill="white"/>
<circle cx="1.5" cy="1.5" r="1.5" transform="matrix(-1 0 0 1 3 133)" fill="white"/>
<circle cx="1.5" cy="1.5" r="1.5" transform="matrix(-1 0 0 1 79 57)" fill="#00BF9F"/>
<circle cx="1.5" cy="1.5" r="1.5" transform="matrix(-1 0 0 1 98 57)" fill="#3859FF"/>
<circle cx="1.5" cy="1.5" r="1.5" transform="matrix(-1 0 0 1 60 38)" fill="#00BF9F"/>
<circle cx="1.5" cy="1.5" r="1.5" transform="matrix(-1 0 0 1 22 38)" fill="#00BF9F"/>
<circle cx="1.5" cy="1.5" r="1.5" transform="matrix(-1 0 0 1 79 38)" fill="#3859FF"/>
<circle cx="1.5" cy="1.5" r="1.5" transform="matrix(-1 0 0 1 98 38)" fill="#00BF9F"/>
<circle cx="1.5" cy="1.5" r="1.5" transform="matrix(-1 0 0 1 41 38)" fill="#3859FF"/>
<circle cx="1.5" cy="1.5" r="1.5" transform="matrix(-1 0 0 1 3 38)" fill="#3859FF"/>
<circle cx="1.5" cy="1.5" r="1.5" transform="matrix(-1 0 0 1 60 19)" fill="#3859FF"/>
<circle cx="1.5" cy="1.5" r="1.5" transform="matrix(-1 0 0 1 22 19)" fill="#3859FF"/>
<circle cx="1.5" cy="1.5" r="1.5" transform="matrix(-1 0 0 1 79 19)" fill="#00BF9F"/>
<circle cx="1.5" cy="1.5" r="1.5" transform="matrix(-1 0 0 1 98 19)" fill="#3859FF"/>
<circle cx="1.5" cy="1.5" r="1.5" transform="matrix(-1 0 0 1 41 19)" fill="#00BF9F"/>
<circle cx="1.5" cy="1.5" r="1.5" transform="matrix(-1 0 0 1 3 19)" fill="#00BF9F"/>
<circle cx="1.5" cy="1.5" r="1.5" transform="matrix(-1 0 0 1 60 0)" fill="#00BF9F"/>
<circle cx="1.5" cy="1.5" r="1.5" transform="matrix(-1 0 0 1 22 0)" fill="#00BF9F"/>
<circle cx="1.5" cy="1.5" r="1.5" transform="matrix(-1 0 0 1 79 0)" fill="#3859FF"/>
<circle cx="1.5" cy="1.5" r="1.5" transform="matrix(-1 0 0 1 98 0)" fill="#00BF9F"/>
<circle cx="1.5" cy="1.5" r="1.5" transform="matrix(-1 0 0 1 41 0)" fill="#3859FF"/>
<circle cx="1.5" cy="1.5" r="1.5" transform="matrix(-1 0 0 1 3 0)" fill="#3859FF"/>
</svg>
