<svg width="98" height="136" viewBox="0 0 98 136" fill="none" xmlns="http://www.w3.org/2000/svg">
<circle cx="39.5" cy="96.5" r="1.5" fill="#3859FF"/>
<circle cx="39.5" cy="115.5" r="1.5" fill="#00BF9F"/>
<circle cx="39.5" cy="134.5" r="1.5" fill="#3859FF"/>
<circle cx="20.5" cy="96.5" r="1.5" fill="#00BF9F"/>
<circle cx="20.5" cy="115.5" r="1.5" fill="#3859FF"/>
<circle cx="20.5" cy="134.5" r="1.5" fill="#00BF9F"/>
<circle cx="1.5" cy="96.5" r="1.5" fill="#3859FF"/>
<circle cx="1.5" cy="115.5" r="1.5" fill="#00BF9F"/>
<circle cx="1.5" cy="134.5" r="1.5" fill="#3859FF"/>
<circle cx="39.5" cy="77.5" r="1.5" fill="#00BF9F"/>
<circle cx="20.5" cy="77.5" r="1.5" fill="#3859FF"/>
<circle cx="1.5" cy="77.5" r="1.5" fill="#00BF9F"/>
<circle cx="39.5" cy="58.5" r="1.5" fill="#3859FF"/>
<circle cx="58.5" cy="58.5" r="1.5" fill="white"/>
<circle cx="58.5" cy="77.5" r="1.5" fill="white"/>
<circle cx="58.5" cy="96.5" r="1.5" fill="white"/>
<circle cx="58.5" cy="115.5" r="1.5" fill="white"/>
<circle cx="58.5" cy="134.5" r="1.5" fill="white"/>
<circle cx="77.5" cy="58.5" r="1.5" fill="white"/>
<circle cx="77.5" cy="77.5" r="1.5" fill="white"/>
<circle cx="77.5" cy="96.5" r="1.5" fill="white"/>
<circle cx="77.5" cy="115.5" r="1.5" fill="white"/>
<circle cx="77.5" cy="134.5" r="1.5" fill="white"/>
<circle cx="96.5" cy="58.5" r="1.5" fill="white"/>
<circle cx="96.5" cy="77.5" r="1.5" fill="white"/>
<circle cx="96.5" cy="96.5" r="1.5" fill="white"/>
<circle cx="96.5" cy="115.5" r="1.5" fill="white"/>
<circle cx="96.5" cy="134.5" r="1.5" fill="white"/>
<circle cx="20.5" cy="58.5" r="1.5" fill="#00BF9F"/>
<circle cx="1.5" cy="58.5" r="1.5" fill="#3859FF"/>
<circle cx="39.5" cy="39.5" r="1.5" fill="#00BF9F"/>
<circle cx="77.5" cy="39.5" r="1.5" fill="#00BF9F"/>
<circle cx="20.5" cy="39.5" r="1.5" fill="#3859FF"/>
<circle cx="1.5" cy="39.5" r="1.5" fill="#00BF9F"/>
<circle cx="58.5" cy="39.5" r="1.5" fill="#3859FF"/>
<circle cx="96.5" cy="39.5" r="1.5" fill="#3859FF"/>
<circle cx="39.5" cy="20.5" r="1.5" fill="#3859FF"/>
<circle cx="77.5" cy="20.5" r="1.5" fill="#3859FF"/>
<circle cx="20.5" cy="20.5" r="1.5" fill="#00BF9F"/>
<circle cx="1.5" cy="20.5" r="1.5" fill="#3859FF"/>
<circle cx="58.5" cy="20.5" r="1.5" fill="#00BF9F"/>
<circle cx="96.5" cy="20.5" r="1.5" fill="#00BF9F"/>
<circle cx="39.5" cy="1.5" r="1.5" fill="#00BF9F"/>
<circle cx="77.5" cy="1.5" r="1.5" fill="#00BF9F"/>
<circle cx="20.5" cy="1.5" r="1.5" fill="#3859FF"/>
<circle cx="1.5" cy="1.5" r="1.5" fill="#00BF9F"/>
<circle cx="58.5" cy="1.5" r="1.5" fill="#3859FF"/>
<circle cx="96.5" cy="1.5" r="1.5" fill="#3859FF"/>
</svg>
