<svg width="28" height="28" viewBox="0 0 28 28" fill="none" xmlns="http://www.w3.org/2000/svg">
<path fill-rule="evenodd" clip-rule="evenodd" d="M4.66669 5.83333C4.02769 5.83333 3.50002 6.361 3.50002 7V21C3.50002 21.639 4.02769 22.1667 4.66669 22.1667H23.3334C23.9724 22.1667 24.5 21.639 24.5 21V7C24.5 6.361 23.9724 5.83333 23.3334 5.83333H4.66669ZM1.16669 7C1.16669 5.07233 2.73902 3.5 4.66669 3.5H23.3334C25.261 3.5 26.8334 5.07233 26.8334 7V21C26.8334 22.9277 25.261 24.5 23.3334 24.5H4.66669C2.73902 24.5 1.16669 22.9277 1.16669 21V7Z" fill="#00BF9F"/>
<path fill-rule="evenodd" clip-rule="evenodd" d="M1.37756 6.33074C1.74706 5.80288 2.47451 5.6745 3.00237 6.044L14 13.7423L24.9976 6.044C25.5255 5.6745 26.2529 5.80288 26.6224 6.33074C26.9919 6.85859 26.8636 7.58604 26.3357 7.95554L14.669 16.1222C14.2673 16.4034 13.7327 16.4034 13.331 16.1222L1.66429 7.95554C1.13643 7.58604 1.00806 6.85859 1.37756 6.33074Z" fill="#00BF9F"/>
</svg>
