<svg width="28" height="28" viewBox="0 0 28 28" fill="none" xmlns="http://www.w3.org/2000/svg">
<path fill-rule="evenodd" clip-rule="evenodd" d="M14 2.33333C16.4754 2.33333 18.8493 3.31666 20.5997 5.067C22.35 6.81734 23.3333 9.19131 23.3333 11.6667C23.3333 15.2811 20.9816 18.7883 18.4031 21.5101C17.1376 22.8459 15.8682 23.9394 14.9139 24.6993C14.5587 24.9821 14.2485 25.2177 14 25.4013C13.7515 25.2177 13.4413 24.9821 13.0861 24.6993C12.1318 23.9394 10.8624 22.8459 9.59695 21.5101C7.01836 18.7883 4.66667 15.2811 4.66667 11.6667C4.66667 9.19131 5.65 6.81734 7.40034 5.067C9.15068 3.31666 11.5247 2.33333 14 2.33333ZM14 26.8333C14.6472 27.8041 14.6475 27.8039 14.6478 27.8036L14.6511 27.8014L14.6589 27.7962L14.6856 27.7781C14.7083 27.7627 14.7407 27.7405 14.7822 27.7118C14.8651 27.6544 14.9841 27.5708 15.1342 27.4624C15.4344 27.2456 15.8593 26.9293 16.3674 26.5246C17.3818 25.7169 18.7374 24.55 20.0969 23.1149C22.7684 20.295 25.6667 16.2189 25.6667 11.6667C25.6667 8.57247 24.4375 5.60501 22.2496 3.41709C20.0617 1.22916 17.0942 0 14 0C10.9058 0 7.93835 1.22916 5.75043 3.41709C3.5625 5.60501 2.33334 8.57247 2.33334 11.6667C2.33334 16.2189 5.23164 20.295 7.90306 23.1149C9.26262 24.55 10.6182 25.7169 11.6326 26.5246C12.1408 26.9293 12.5656 27.2456 12.8658 27.4624C13.0159 27.5708 13.135 27.6544 13.2178 27.7118C13.2593 27.7405 13.2917 27.7627 13.3144 27.7781L13.3411 27.7962L13.3489 27.8014L13.3514 27.8031C13.3517 27.8033 13.3529 27.8041 14 26.8333ZM14 26.8333L13.3529 27.8041C13.7447 28.0653 14.2559 28.0649 14.6478 27.8036L14 26.8333Z" fill="#3859FF"/>
<path fill-rule="evenodd" clip-rule="evenodd" d="M14 9.33333C15.2887 9.33333 16.3333 10.378 16.3333 11.6667C16.3333 12.9553 15.2887 14 14 14C12.7113 14 11.6667 12.9553 11.6667 11.6667C11.6667 10.378 12.7113 9.33333 14 9.33333ZM18.6667 11.6667C18.6667 9.08934 16.5773 7 14 7C11.4227 7 9.33334 9.08934 9.33334 11.6667C9.33334 14.244 11.4227 16.3333 14 16.3333C16.5773 16.3333 18.6667 14.244 18.6667 11.6667Z" fill="#3859FF"/>
</svg>
