<svg width="28" height="28" viewBox="0 0 28 28" fill="none" xmlns="http://www.w3.org/2000/svg">
<path d="M2.33333 19.7398V23.2398C2.33201 23.5647 2.39857 23.8863 2.52874 24.184C2.6589 24.4817 2.84981 24.749 3.08924 24.9686C3.32867 25.1883 3.61133 25.3555 3.91912 25.4596C4.22692 25.5637 4.55306 25.6024 4.87666 25.5731C8.46669 25.183 11.9152 23.9563 14.945 21.9915C17.7639 20.2002 20.1538 17.8103 21.945 14.9915C23.9167 11.9479 25.1437 8.48261 25.5267 4.87645C25.5558 4.55383 25.5175 4.22867 25.4141 3.92168C25.3107 3.61469 25.1445 3.33259 24.9261 3.09335C24.7077 2.8541 24.4419 2.66295 24.1456 2.53206C23.8493 2.40118 23.5289 2.33343 23.205 2.33312H19.705C19.1388 2.32755 18.5899 2.52805 18.1606 2.89724C17.7313 3.26644 17.4509 3.77914 17.3717 4.33979C17.2239 5.45986 16.95 6.55964 16.555 7.61812C16.398 8.0357 16.3641 8.48952 16.4571 8.92581C16.5502 9.36211 16.7663 9.76258 17.08 10.0798L18.5617 11.5615C16.9008 14.4823 14.4825 16.9006 11.5617 18.5615L10.08 17.0798C9.76279 16.7661 9.36232 16.5499 8.92602 16.4569C8.48973 16.3638 8.03591 16.3978 7.61833 16.5548C6.55985 16.9498 5.46007 17.2237 4.34 17.3715C3.77327 17.4514 3.2557 17.7369 2.88571 18.1735C2.51572 18.6102 2.31913 19.1676 2.33333 19.7398Z" stroke="#3859FF" stroke-width="2.5" stroke-linecap="round" stroke-linejoin="round"/>
</svg>
